<svg xmlns="http://www.w3.org/2000/svg" xmlns:xlink="http://www.w3.org/1999/xlink" viewBox="-30 0 1950 1240"><defs><style>.cls-1{fill:transparent;}.cls-2,.cls-3,.cls-4,.cls-5,.cls-6,.cls-7{opacity:0.8;}.cls-2{fill:url(#未命名漸層_2-2);}.cls-3{fill:url(#未命名漸層_2-3);}.cls-4{fill:url(#未命名漸層_2-4);}.cls-5{fill:url(#未命名漸層_2-5);}.cls-6{fill:url(#未命名漸層_2-6);}.cls-7{fill:url(#未命名漸層_2-7);}</style><linearGradient id="未命名漸層_2" x1="1753.25" y1="-166.75" x2="166.75" y2="1419.75" gradientUnits="userSpaceOnUse"><stop offset="0" stop-color="#f4d722" stop-opacity="0.5"/><stop offset="0.17" stop-color="#f4d021" stop-opacity="0.55"/><stop offset="0.47" stop-color="#f3bd1e" stop-opacity="0.7"/><stop offset="0.89" stop-color="#f29f19" stop-opacity="0.93"/><stop offset="1" stop-color="#f29618"/></linearGradient><linearGradient id="未命名漸層_2-2" x1="-2893.76" y1="631.02" x2="-2941.77" y2="631.02" gradientTransform="matrix(-0.07, -1.5, 1, -0.05, 481.39, -3473.27)" xlink:href="#未命名漸層_2"/><linearGradient id="未命名漸層_2-3" x1="-660.93" y1="404.08" x2="-708.94" y2="404.08" gradientTransform="matrix(1.91, -1.34, 0.92, 1.31, 2614.7, -712.73)" xlink:href="#未命名漸層_2"/><linearGradient id="未命名漸層_2-4" x1="-1126.06" y1="1067.69" x2="-1161.81" y2="1067.69" gradientTransform="matrix(2.04, -1.31, 0.86, 1.35, 1788.14, -2245.45)" xlink:href="#未命名漸層_2"/><linearGradient id="未命名漸層_2-5" x1="-2175.45" y1="-1045.54" x2="-2189.47" y2="-1045.54" gradientTransform="matrix(-2.72, -2.68, 1.12, -1.14, -4071.06, -5995.17)" xlink:href="#未命名漸層_2"/><linearGradient id="未命名漸層_2-6" x1="-2431.63" y1="-1034.74" x2="-2445.65" y2="-1034.74" gradientTransform="matrix(-2.25, -0.9, 0.59, -1.49, -3110.38, -3395.19)" xlink:href="#未命名漸層_2"/><linearGradient id="未命名漸層_2-7" x1="-16.47" y1="-3533.24" x2="-122.06" y2="-3533.24" gradientTransform="matrix(0.63, 1.8, -0.47, 0.16, -1491.49, 1540.94)" xlink:href="#未命名漸層_2"/></defs><title>SideeXInstal_bg_1</title><g id="圖層_1" data-name="圖層 1"><rect class="cls-1" width="1920" height="1253"/></g><g id="圖層_2" data-name="圖層 2"><path class="cls-2" d="M1263.49,901.49s100.46-59.26,105.49-75S1378.61,894.51,1263.49,901.49Z"/><path class="cls-3" d="M1577.57,693.31s164.15,86.53,189.29,80.2S1685.32,843.09,1577.57,693.31Z"/><path class="cls-4" d="M403.25,820.76s3.07-139.27-45.67-232.13c0,0-21.53-36.22-25.08-17.3S381.86,792.41,403.25,820.76Z"/><path class="cls-5" d="M734.55,1020.88s-65.89-1.25-98.58,24.06c0,0-12.19,11.17-2.55,12.95S726,1032,734.55,1020.88Z"/><path class="cls-6" d="M1805.06,297.83s-45.07,30.85-63.51,67.6c0,0-6.62,15.14.22,11.94S1800.92,311.12,1805.06,297.83Z"/><path class="cls-7" d="M-21,781.47S138.22,916.54,235.3,904.69c0,0,37.41-9.69,15.23-34.31S7.48,764.77-21,781.47Z"/></g></svg>
